<svg width="30" height="20" viewBox="0 0 30 20" fill="none" xmlns="http://www.w3.org/2000/svg">
<path opacity="0.2" d="M23.9035 10.6796C23.5619 10.3507 23.5552 9.80465 23.8968 9.46914L27.059 6.31797H11.9853C11.5029 6.31797 11.1143 5.93641 11.1143 5.46275C11.1143 4.98908 11.5029 4.60752 11.9853 4.60752H27.0523L23.8901 1.45635C23.5552 1.12084 23.5552 0.581393 23.8968 0.245883C24.2385 -0.0830495 24.7879 -0.0830491 25.1295 0.252462L29.7521 4.85751C29.8258 4.93646 29.8928 5.02198 29.933 5.12724C29.9799 5.23249 30 5.34433 30 5.45617C30 5.67984 29.9129 5.89036 29.7521 6.05482L25.1295 10.6599C24.7946 11.002 24.2452 11.0085 23.9035 10.6796ZM6.09647 19.7581C6.43814 19.4292 6.44484 18.8832 6.10317 18.5477L2.94774 15.3965H18.0147C18.4971 15.3965 18.8857 15.0149 18.8857 14.5413C18.8857 14.0676 18.4971 13.6861 18.0147 13.6861H2.94774L6.10987 10.5349C6.44484 10.1994 6.44484 9.65992 6.10317 9.32441C5.7615 8.99548 5.21215 8.99548 4.87048 9.33099L0.247879 13.936C0.174185 14.015 0.107191 14.1005 0.0669942 14.2058C0.0200983 14.311 0 14.4229 0 14.5347C0 14.7584 0.0870925 14.9689 0.247879 15.1334L4.87048 19.7384C5.20545 20.0805 5.7548 20.0871 6.09647 19.7581Z" fill="white"/>
</svg>
