<svg width="24" height="24" viewBox="0 0 24 24" fill="none" xmlns="http://www.w3.org/2000/svg">
<path fill-rule="evenodd" clip-rule="evenodd" d="M12 0C9.62663 0 7.30655 0.703789 5.33316 2.02237C3.35977 3.34094 1.8217 5.21509 0.913451 7.4078C0.00519937 9.60051 -0.232441 12.0133 0.230582 14.3411C0.693605 16.6689 1.83649 18.807 3.51472 20.4853C5.19295 22.1635 7.33114 23.3064 9.65891 23.7694C11.9867 24.2324 14.3995 23.9948 16.5922 23.0866C18.7849 22.1783 20.6591 20.6402 21.9777 18.6668C23.2962 16.6935 24 14.3734 24 12C23.9964 8.8185 22.731 5.76833 20.4813 3.51866C18.2317 1.269 15.1815 0.00357316 12 0ZM12 21C10.22 21 8.47992 20.4722 6.99988 19.4832C5.51983 18.4943 4.36628 17.0887 3.6851 15.4442C3.00391 13.7996 2.82568 11.99 3.17295 10.2442C3.52022 8.49836 4.37737 6.89471 5.63604 5.63604C6.89471 4.37737 8.49836 3.5202 10.2442 3.17293C11.99 2.82566 13.7996 3.00389 15.4442 3.68508C17.0887 4.36627 18.4943 5.51983 19.4832 6.99987C20.4722 8.47991 21 10.22 21 12C21 14.3869 20.0518 16.6761 18.364 18.364C16.6761 20.0518 14.387 21 12 21ZM16.5 10.5H13.5V7.5C13.5 7.10218 13.342 6.72064 13.0607 6.43934C12.7794 6.15803 12.3978 6 12 6C11.6022 6 11.2206 6.15803 10.9393 6.43934C10.658 6.72064 10.5 7.10218 10.5 7.5V10.5H7.50001C7.10218 10.5 6.72065 10.658 6.43935 10.9393C6.15804 11.2206 6.00001 11.6022 6.00001 12C6.00001 12.3978 6.15804 12.7794 6.43935 13.0607C6.72065 13.342 7.10218 13.5 7.50001 13.5H10.5V16.5C10.5 16.8978 10.658 17.2794 10.9393 17.5607C11.2206 17.842 11.6022 18 12 18C12.3978 18 12.7794 17.842 13.0607 17.5607C13.342 17.2794 13.5 16.8978 13.5 16.5V13.5H16.5C16.8978 13.5 17.2794 13.342 17.5607 13.0607C17.842 12.7794 18 12.3978 18 12C18 11.6022 17.842 11.2206 17.5607 10.9393C17.2794 10.658 16.8978 10.5 16.5 10.5Z" fill="white"/>
</svg>
