<svg width="20" height="30" viewBox="0 0 20 30" fill="none" xmlns="http://www.w3.org/2000/svg">
<path d="M9.32039 23.9035C9.64932 23.5619 10.1953 23.5552 10.5309 23.8968L13.682 27.059L13.682 11.9853C13.682 11.5029 14.0636 11.1143 14.5373 11.1143C15.0109 11.1143 15.3925 11.5029 15.3925 11.9853L15.3925 27.0523L18.5436 23.8901C18.8792 23.5552 19.4186 23.5552 19.7541 23.8968C20.083 24.2385 20.083 24.7879 19.7475 25.1295L15.1425 29.7521C15.0635 29.8258 14.978 29.8928 14.8728 29.933C14.7675 29.9799 14.6557 30 14.5438 30C14.3202 30 14.1096 29.9129 13.9452 29.7521L9.34012 25.1295C8.99803 24.7946 8.99146 24.2452 9.32039 23.9035ZM0.241863 6.09647C0.570795 6.43814 1.11682 6.44484 1.45233 6.10317L4.6035 2.94774L4.6035 18.0147C4.6035 18.4971 4.98506 18.8857 5.45873 18.8857C5.93239 18.8857 6.31395 18.4971 6.31395 18.0147L6.31395 2.94774L9.46512 6.10987C9.80063 6.44484 10.3401 6.44484 10.6756 6.10317C11.0045 5.7615 11.0045 5.21215 10.669 4.87048L6.06396 0.247878C5.98502 0.174184 5.8995 0.10719 5.79424 0.0669936C5.68898 0.0200976 5.57714 -6.30443e-07 5.46531 -6.35332e-07C5.24163 -6.45109e-07 5.03111 0.0870918 4.86665 0.247878L0.261598 4.87048C-0.0804922 5.20545 -0.0870688 5.7548 0.241863 6.09647Z" fill="white"/>
</svg>
