<svg width="20" height="20" viewBox="0 0 20 20" fill="none" xmlns="http://www.w3.org/2000/svg">
<path d="M9.5 20C6.962 20 4.577 19.012 2.782 17.218C0.987 15.424 0 13.038 0 10.501C0 7.963 0.988 5.578 2.782 3.783C4.576 1.988 6.962 1 9.5 1C12.038 1 14.423 1.988 16.218 3.783C18.013 5.578 19 7.963 19 10.501C19 13.039 18.012 15.424 16.218 17.218C14.424 19.012 12.038 20 9.5 20ZM9.5 2C4.813 2 1 5.813 1 10.5C1 15.187 4.813 19 9.5 19C14.187 19 18 15.187 18 10.5C18 5.813 14.187 2 9.5 2Z" fill="white"/>
<path d="M7.50001 14.5C7.37201 14.5 7.24401 14.451 7.14601 14.354L4.14601 11.354C3.95101 11.159 3.95101 10.842 4.14601 10.647C4.34101 10.452 4.65801 10.452 4.85301 10.647L7.49901 13.293L14.145 6.64698C14.34 6.45198 14.657 6.45198 14.852 6.64698C15.047 6.84198 15.047 7.15898 14.852 7.35398L7.85201 14.354C7.75401 14.452 7.62601 14.5 7.49801 14.5H7.50001Z" fill="white"/>
</svg>
